<?xml version="1.0" encoding="iso-8859-1"?>
<!-- Generator: Adobe Illustrator 19.0.0, SVG Export Plug-In . SVG Version: 6.00 Build 0)  -->
<svg version="1.1" id="Layer_1" xmlns="http://www.w3.org/2000/svg" xmlns:xlink="http://www.w3.org/1999/xlink" x="0px" y="0px"
	 viewBox="0 0 512 512" style="enable-background:new 0 0 512 512;" xml:space="preserve" fill="#6628e9">
<g>
	<g>
		<path d="M421.263,17.067c-42.35,0-76.8,34.45-76.8,76.8c0,42.35,34.45,76.8,76.8,76.8c42.35,0,76.8-34.45,76.8-76.8
			C498.063,51.517,463.613,17.067,421.263,17.067z M421.263,153.6c-32.933,0-59.733-26.8-59.733-59.733
			c0-32.933,26.8-59.733,59.733-59.733s59.733,26.8,59.733,59.733C480.996,126.8,454.196,153.6,421.263,153.6z"/>
	</g>
</g>
<g>
	<g>
		<path d="M460.862,61.708c-3.633-3.008-9-2.525-12.025,1.092l-36.683,44.025l-18.992-18.992c-3.333-3.333-8.733-3.333-12.067,0
			c-3.333,3.333-3.333,8.733,0,12.067l25.6,25.6c1.6,1.608,3.775,2.5,6.033,2.5c0.125,0,0.258,0,0.383-0.008
			c2.4-0.108,4.633-1.217,6.175-3.058l42.667-51.2C464.971,70.108,464.479,64.725,460.862,61.708z"/>
	</g>
</g>
<g>
	<g>
		<path d="M466.204,179.2c-4.717,0-8.533,3.817-8.533,8.533v128.025c0,4.692-2.783,9.575-7.525,9.575H40.662
			c-4.742,0-9.658-4.9-9.658-9.617v-238.9c0-4.717,4.883-7.483,9.583-7.483h281.617c4.717,0,8.533-3.817,8.533-8.533
			c0-4.717-3.817-8.533-8.533-8.533h-60.8V8.533c0-4.717-3.817-8.533-8.533-8.533c-4.717,0-8.533,3.817-8.533,8.533v43.733H40.588
			c-14.108,0-26.65,10.425-26.65,24.55v238.9c0,14.125,12.575,26.683,26.725,26.683h192.675L119.904,455.3
			c-3.333,3.333-3.333,8.467,0,11.8c1.667,1.667,3.85,2.367,6.033,2.367c2.183,0,3.833-0.9,5.5-2.567l112.9-113.5v150.067
			c0,4.717,3.817,8.533,8.533,8.533c4.717,0,8.533-3.817,8.533-8.533V353.4l113.967,113.433c1.667,1.667,4.117,2.5,6.3,2.5
			s4.5-0.833,6.167-2.5c3.333-3.333,3.4-8.2,0.067-11.533L274.538,342.4h175.608c14.15,0,24.592-12.542,24.592-26.642V187.733
			C474.737,183.017,470.921,179.2,466.204,179.2z"/>
	</g>
</g>
<g>
	<g>
		<path d="M322.204,103.467h-93.867c-4.717,0-8.533,3.817-8.533,8.533c0,4.717,3.817,8.533,8.533,8.533h93.867
			c4.717,0,8.533-3.817,8.533-8.533C330.737,107.283,326.921,103.467,322.204,103.467z"/>
	</g>
</g>
<g>
	<g>
		<path d="M416.071,188.8h-51.2c-4.717,0-8.533,3.817-8.533,8.533c0,4.717,3.817,8.533,8.533,8.533h51.2
			c4.717,0,8.533-3.817,8.533-8.533C424.604,192.617,420.787,188.8,416.071,188.8z"/>
	</g>
</g>
<g>
	<g>
		<path d="M416.071,231.467h-51.2c-4.717,0-8.533,3.817-8.533,8.533c0,4.717,3.817,8.533,8.533,8.533h51.2
			c4.717,0,8.533-3.817,8.533-8.533C424.604,235.283,420.787,231.467,416.071,231.467z"/>
	</g>
</g>
<g>
	<g>
		<path d="M416.071,274.133h-51.2c-4.717,0-8.533,3.817-8.533,8.533s3.817,8.533,8.533,8.533h51.2c4.717,0,8.533-3.817,8.533-8.533
			S420.787,274.133,416.071,274.133z"/>
	</g>
</g>
<g>
	<g>
		<path d="M322.204,146.133h-93.867c-4.717,0-8.533,3.817-8.533,8.533c0,4.717,3.817,8.533,8.533,8.533h93.867
			c4.717,0,8.533-3.817,8.533-8.533C330.737,149.95,326.921,146.133,322.204,146.133z"/>
	</g>
</g>
<g>
	<g>
		<path d="M322.204,188.8h-93.867c-4.717,0-8.533,3.817-8.533,8.533c0,4.717,3.817,8.533,8.533,8.533h93.867
			c4.717,0,8.533-3.817,8.533-8.533C330.737,192.617,326.921,188.8,322.204,188.8z"/>
	</g>
</g>
<g>
	<g>
		<path d="M322.204,231.467h-93.867c-4.717,0-8.533,3.817-8.533,8.533c0,4.717,3.817,8.533,8.533,8.533h93.867
			c4.717,0,8.533-3.817,8.533-8.533C330.737,235.283,326.921,231.467,322.204,231.467z"/>
	</g>
</g>
<g>
	<g>
		<path d="M322.204,274.133h-93.867c-4.717,0-8.533,3.817-8.533,8.533s3.817,8.533,8.533,8.533h93.867
			c4.717,0,8.533-3.817,8.533-8.533S326.921,274.133,322.204,274.133z"/>
	</g>
</g>
<g>
	<g>
		<path d="M135.396,183.533c-18.483-2.308-26.592-4.067-26.592-21.4c0-9.25,2.567-15.508,7.783-19.133
			c12.858-8.933,39.75-1.917,49.008,1.525c4.417,1.658,9.342-0.592,10.992-5.008c1.65-4.408-1.113-9.317-5.521-10.975
			c-2.3-0.858-14.196-5.169-29.129-6.542v-18.533h-17.067v18.635c-6.4,0.892-12.867,2.962-18.492,6.864
			c-6.892,4.775-14.842,14.408-14.842,33.167c0,33.133,25.175,36.267,41.742,38.333c18.483,2.308,26.725,4.067,26.725,21.4
			c0,9.25-2.5,15.508-7.717,19.133c-12.85,8.933-39.717,1.925-48.975-1.525c-4.408-1.633-9.317,0.592-10.975,5.008
			c-1.65,4.408,0.054,9.317,4.463,10.975c2.3,0.86,15.271,5.154,28.071,6.527v20.681h17.067v-20.848
			c8.533-0.891,13.94-2.887,19.558-6.785c6.891-4.775,15.375-14.408,15.375-33.167C176.871,188.733,151.962,185.6,135.396,183.533z"
			/>
	</g>
</g>
<g>
</g>
<g>
</g>
<g>
</g>
<g>
</g>
<g>
</g>
<g>
</g>
<g>
</g>
<g>
</g>
<g>
</g>
<g>
</g>
<g>
</g>
<g>
</g>
<g>
</g>
<g>
</g>
<g>
</g>
</svg>
