<?xml version="1.0" encoding="UTF-8"?>
<svg width="752pt" height="752pt" version="1.1" viewBox="0 0 752 752" xmlns="http://www.w3.org/2000/svg" fill="#6628e9">
 <g>
  <path d="m389.63 500.08c13.559 0 34.621-3.7266 53.672-22.777 30.633-30.633 21.648-66.445 21.25-67.957-0.66797-2.5469-2.668-4.5273-5.2188-5.168-1.5117-0.38672-37.566-9.0508-67.887 21.27-3.1797 3.1797-5.8438 6.4297-8.2227 9.6914l0.003907-56.871c47.754-3.7109 85.496-43.668 85.496-92.355 0-51.129-41.594-92.727-92.727-92.727-51.129 0-92.723 41.594-92.723 92.727 0 48.688 37.742 88.645 85.496 92.355v56.871c-2.3789-3.2617-5.043-6.5117-8.2227-9.6914-30.309-30.309-66.363-21.66-67.883-21.27-2.5547 0.64062-4.5547 2.6211-5.2227 5.168-0.39844 1.5117-9.3789 37.32 21.254 67.957 19.055 19.051 40.109 22.777 53.672 22.777 2.3984 0 4.5273-0.12109 6.4062-0.29297v33.543c-23.203 0.33984-48.984 3.332-74.93 11.355-3.8164 1.1758-5.9492 5.2305-4.7695 9.043 0.96094 3.1016 3.8203 5.0938 6.9062 5.0938 0.70703 0 1.4297-0.10547 2.1406-0.32422 76.84-23.773 155-0.23438 155.78 0.003906 3.8281 1.168 7.8633-0.96094 9.0352-4.7773 1.1758-3.8125-0.95703-7.8594-4.7695-9.0352-2.0508-0.63672-32.781-9.9023-74.93-11.23v-33.668c1.8672 0.16797 3.9961 0.28906 6.3945 0.28906zm12.039-64.41c18.949-18.949 40.457-19.164 49.648-18.188 1.0273 9.1211 0.87891 30.473-18.238 49.598-19.121 19.113-40.48 19.262-49.582 18.238-0.14453-1.3945-0.24609-3.1094-0.27344-5.0273v-0.14453c0.007813-0.55078 0.007813-1.1016 0-1.6797 0.18359-10.832 3.3398-27.691 18.445-42.797zm-103.94-149.76c0-43.156 35.109-78.27 78.266-78.27s78.27 35.109 78.27 78.27c0 43.152-35.109 78.262-78.27 78.262-43.156 0-78.266-35.109-78.266-78.262zm70.781 199.39c-9.1016 0.99219-30.559 0.8125-49.598-18.219-19.129-19.133-19.262-40.5-18.238-49.598 9.2031-0.98047 30.703-0.75781 49.648 18.188 14.602 14.602 18.066 30.699 18.445 41.531v1.2383c-0.007813 0.58984-0.007813 1.1562 0 1.7188v1.4922c-0.054688 1.3594-0.14844 2.5938-0.25781 3.6484z"/>
  <path d="m383.23 337.45v-12.453h7.0039c12.77 0 23.156-10.387 23.156-23.156 0-12.77-10.387-23.156-23.156-23.156h-7.0039v-18.102h22.93c3.9922 0 7.2305-3.2383 7.2305-7.2305 0-3.9922-3.2383-7.2305-7.2305-7.2305h-22.93v-12.453c0-3.9922-3.2344-7.2305-7.2305-7.2305-3.9922 0-7.2305 3.2383-7.2305 7.2305v12.453h-7.0039c-12.77 0-23.156 10.391-23.156 23.16v0.69531c0 12.77 10.387 23.16 23.156 23.16h7.0039v17.395h-22.93c-3.9922 0-7.2305 3.2383-7.2305 7.2305 0 3.9922 3.2344 7.2305 7.2305 7.2305h22.93v12.453c0 3.9922 3.2344 7.2305 7.2305 7.2305 3.9922 0 7.2305-3.2383 7.2305-7.2266zm-21.461-58.766c-4.7969 0-8.6992-3.9023-8.6992-8.7031v-0.69531c0-4.8008 3.9023-8.7031 8.6992-8.7031h7.0039v18.102zm21.461 14.457h7.0039c4.7969 0 8.6992 3.9023 8.6992 8.6992 0 4.7969-3.9023 8.6992-8.6992 8.6992h-7.0039z"/>
 </g>
</svg>
