<?xml version="1.0" encoding="utf-8"?>
<!-- Svg Vector Icons : http://www.onlinewebfonts.com/icon -->
<!DOCTYPE svg PUBLIC "-//W3C//DTD SVG 1.1//EN" "http://www.w3.org/Graphics/SVG/1.1/DTD/svg11.dtd">
<svg version="1.1" xmlns="http://www.w3.org/2000/svg" xmlns:xlink="http://www.w3.org/1999/xlink" x="0px" y="0px" viewBox="0 0 1000 1000" enable-background="new 0 0 1000 1000" xml:space="preserve" fill="#6628e9">
<metadata> Svg Vector Icons : http://www.onlinewebfonts.com/icon </metadata>
<g><g transform="translate(0.000000,511.000000) scale(0.100000,-0.100000)"><path d="M199.1,5011c-79.7-41.1-120.8-149.1-87.4-241.6c15.4-48.8,69.4-92.5,177.4-146.5c215.9-108,539.8-437,663.2-673.5c115.7-226.2,149.1-385.6,236.5-1102.7c133.7-1143.9,236.5-1683.6,421.6-2249.1c215.9-650.3,480.7-1102.7,863.7-1478l210.8-205.6l-321.3-1323.8c-177.4-727.4-326.5-1326.3-329-1331.5c-10.3-15.4-277.6,128.5-460.1,246.7c-97.7,64.3-262.2,195.4-365,295.6c-210.8,203.1-190.2,200.5-406.1,10.3l-102.8-92.5l195.4-190.2c311-308.5,745.4-575.8,1282.7-789.1c2056.4-820,5089.5-730,6932.5,203.1c174.8,87.4,573.2,349.6,701.7,457.5l87.4,77.1l-144,151.7l-143.9,149.1l-123.4-105.4c-185.1-151.6-395.9-280.2-717.2-434.4c-277.6-133.7-984.5-385.6-1010.2-359.9c-10.3,12.9-673.5,2701.5-673.5,2740.1c0,43.7,462.7,128.5,696.6,128.5c339.3,0,552.6-61.7,899.7-257c77.1-43.7,105.4-46.3,172.2-23.1c95.1,33.4,133.7,90,133.7,195.4c0,164.5-359.9,370.2-807.1,460.1c-280.2,59.1-719.7,36-1017.9-48.8c-537.2-151.7-748-205.6-758.3-192.8c-15.4,12.9,544.9,2334,565.5,2357.1c18,18,447.3-74.6,663.2-141.4c156.8-51.4,424.1-161.9,560.4-236.5c15.4-7.7,203.1,305.9,203.1,339.3c0,30.8-329,177.3-614.3,275c-598.9,197.9-1406,280.2-2280,231.3c-686.3-38.6-1249.2-102.8-2508.8-285.3c-580.9-84.8-1077-154.2-1100.2-154.2c-30.9,0-54,33.4-72,110.5c-54,210.8-133.7,732.6-223.6,1460c-102.8,832.8-154.2,1064.2-285.3,1305.8c-192.8,349.6-521.8,681.2-838,840.5C337.9,5052.1,291.6,5057.2,199.1,5011z M6540.4,1283.8c15.4-15.4-580.9-2488.2-606.6-2516.5c-30.9-33.4-503.8-97.7-838-115.7C3761.7-1410,2702.7-849.7,2214.3,181.1c-115.7,241.6-272.5,673.5-246.8,673.5c10.3,0,336.7,46.3,724.9,105.4c2051.2,300.7,2650.2,359.9,3413.6,344.4C6337.3,1299.2,6532.7,1291.5,6540.4,1283.8z M3676.9-1572c485.8-159.4,1025.6-218.5,1570.5-174.8c383,33.4,897.1,120.8,1233.8,210.8c110.5,30.9,203,51.4,208.2,46.3c10.3-12.9,655.5-2678.4,655.5-2709.2c0-36-300.7-95.1-796.8-156.8c-501.2-61.7-1753.1-61.7-2249.2,2.6c-624.6,79.7-1177.3,197.9-1652.8,354.7c-187.7,61.7-233.9,87.4-226.2,120.8c7.7,23.1,141.4,568.1,298.2,1210.7s295.6,1213.3,311,1264.7l23.1,95.1l213.3-100.3C3381.3-1461.4,3566.4-1536,3676.9-1572z"/></g></g>
</svg>